PathFileType	4	(X/Y/Z)	 0.16m3min.trc
DataRate	CameraRate	NumFrames	NumMarkers	Units	OrigDataRate	OrigDataStartFrame	OrigNumFrames
200	200	10	39	m	200	501	1000
Frame#	Time	C7			LSH			RSH			MAN			RASI			LASI			HIPR			HIPL			RPSI			LPSI			COX			RTHI1			RTHI2			RTHI3			RTHI4			RLKN			RMKN			RSHA1			RSHA2			RSHA3			RSHA4			RHEEL			RMET5			RMET1			RTOE			LTHI1			LTHI2			LTHI3			LTHI4			LLKN			LMKN			LSHA1			LSHA2			LSHA3			LSHA4			LHEEL			LMET5			LMET1			LTOE			
		X1	Y1	Z1	X2	Y2	Z2	X3	Y3	Z3	X4	Y4	Z4	X5	Y5	Z5	X6	Y6	Z6	X7	Y7	Z7	X8	Y8	Z8	X9	Y9	Z9	X10	Y10	Z10	X11	Y11	Z11	X12	Y12	Z12	X13	Y13	Z13	X14	Y14	Z14	X15	Y15	Z15	X16	Y16	Z16	X17	Y17	Z17	X18	Y18	Z18	X19	Y19	Z19	X20	Y20	Z20	X21	Y21	Z21	X22	Y22	Z22	X23	Y23	Z23	X24	Y24	Z24	X25	Y25	Z25	X26	Y26	Z26	X27	Y27	Z27	X28	Y28	Z28	X29	Y29	Z29	X30	Y30	Z30	X31	Y31	Z31	X32	Y32	Z32	X33	Y33	Z33	X34	Y34	Z34	X35	Y35	Z35	X36	Y36	Z36	X37	Y37	Z37	X38	Y38	Z38	X39	Y39	Z39	
501	2.5050	-0.324542	1.654646	-0.564932	-0.279550	1.649454	-0.750714	-0.296251	1.640979	-0.382641	-0.165826	1.614947	-0.566655	-0.160472	1.146085	-0.445559	-0.157338	1.154302	-0.692942	-0.230389	1.205771	-0.403313	-0.231089	1.219206	-0.731954	-0.333511	1.195753	-0.535670	-0.332236	1.197473	-0.598737	-0.331953	1.197537	-0.568961	-0.235259	0.917419	-0.371547	-0.229154	0.856423	-0.373417	-0.158150	0.872057	-0.376585	-0.171311	0.930066	-0.374961	-0.253559	0.649064	-0.402817	-0.217667	0.632539	-0.531656	-0.316439	0.407393	-0.406997	-0.327942	0.369135	-0.421573	-0.269263	0.355255	-0.410666	-0.260907	0.393495	-0.400257	-0.363922	0.241714	-0.479021	-0.231073	0.132875	-0.410688	-0.176277	0.148917	-0.473275	-0.149117	0.130530	-0.468940	-0.280270	0.904684	-0.756976	-0.267355	0.846609	-0.752605	-0.199626	0.862284	-0.774916	-0.221148	0.920361	-0.777246	-0.262253	0.637874	-0.745545	-0.229469	0.616952	-0.626129	-0.328110	0.395740	-0.736470	-0.333198	0.356809	-0.728798	-0.274682	0.350794	-0.750916	-0.278085	0.394549	-0.756444	-0.361362	0.240784	-0.682453	-0.230944	0.133037	-0.756132	-0.179322	0.149925	-0.697938	-0.155705	0.135335	-0.705434	
502	2.5100	-0.324220	1.652923	-0.564417	-0.279884	1.647508	-0.750200	-0.295948	1.638708	-0.382143	-0.165711	1.613067	-0.566342	-0.160519	1.144431	-0.445555	-0.157301	1.152730	-0.692966	-0.230308	1.204177	-0.403391	-0.230905	1.217814	-0.731873	-0.333457	1.194306	-0.535644	-0.332150	1.196086	-0.598717	-0.331914	1.196147	-0.568953	-0.235272	0.915816	-0.371434	-0.229064	0.854811	-0.373225	-0.158079	0.870593	-0.376195	-0.171338	0.928570	-0.374657	-0.252895	0.647384	-0.402460	-0.216587	0.630732	-0.531120	-0.315673	0.405733	-0.406482	-0.327105	0.367428	-0.421168	-0.268482	0.353598	-0.410002	-0.260170	0.391862	-0.399597	-0.362918	0.240003	-0.478546	-0.230377	0.131616	-0.408891	-0.175356	0.147008	-0.471277	-0.148282	0.128630	-0.466577	-0.279893	0.902804	-0.757091	-0.266861	0.844756	-0.752691	-0.199145	0.860564	-0.774946	-0.220782	0.918591	-0.777313	-0.261576	0.636151	-0.745661	-0.228601	0.615360	-0.626242	-0.327690	0.394096	-0.736208	-0.332808	0.355073	-0.728556	-0.274361	0.349114	-0.750911	-0.277758	0.392880	-0.756435	-0.360808	0.239159	-0.681903	-0.231096	0.131574	-0.756903	-0.179023	0.148179	-0.699150	-0.155467	0.133634	-0.707004	
503	2.5150	-0.323900	1.650959	-0.563903	-0.280225	1.645322	-0.749668	-0.295609	1.636214	-0.381654	-0.165607	1.610946	-0.566035	-0.160566	1.142502	-0.445585	-0.157265	1.150887	-0.692965	-0.230165	1.202358	-0.403463	-0.230662	1.216207	-0.731792	-0.333393	1.192670	-0.535604	-0.332056	1.194517	-0.598692	-0.331868	1.194575	-0.568934	-0.235267	0.913956	-0.371296	-0.228936	0.852953	-0.372998	-0.157972	0.868872	-0.375757	-0.171339	0.926843	-0.374326	-0.252152	0.645456	-0.402044	-0.215448	0.628672	-0.530549	-0.314907	0.403835	-0.405929	-0.326277	0.365481	-0.420742	-0.267708	0.351702	-0.409341	-0.259436	0.389978	-0.398924	-0.361980	0.238073	-0.478071	-0.229762	0.130246	-0.407080	-0.174513	0.144855	-0.469182	-0.147540	0.126559	-0.464116	-0.279464	0.900718	-0.757264	-0.266333	0.842695	-0.752824	-0.198620	0.858620	-0.774998	-0.220352	0.916599	-0.777411	-0.260828	0.634182	-0.745819	-0.227729	0.613509	-0.626393	-0.327298	0.392237	-0.735990	-0.332446	0.353128	-0.728274	-0.274083	0.347185	-0.750925	-0.277444	0.390954	-0.756447	-0.360360	0.237237	-0.681404	-0.231197	0.130007	-0.757723	-0.178686	0.146311	-0.700401	-0.155174	0.131844	-0.708592	
504	2.5200	-0.323576	1.648751	-0.563397	-0.280574	1.642900	-0.749126	-0.295236	1.633494	-0.381169	-0.165513	1.608582	-0.565736	-0.160613	1.140300	-0.445644	-0.157230	1.148775	-0.692935	-0.229975	1.200300	-0.403527	-0.230373	1.214377	-0.731713	-0.333325	1.190824	-0.535559	-0.331968	1.192742	-0.598671	-0.331814	1.192802	-0.568911	-0.235230	0.911844	-0.371138	-0.228755	0.850852	-0.372737	-0.157821	0.866915	-0.375276	-0.171313	0.924873	-0.373969	-0.251313	0.643258	-0.401563	-0.214248	0.626375	-0.529944	-0.314139	0.401698	-0.405367	-0.325463	0.363310	-0.420302	-0.266952	0.349562	-0.408688	-0.258702	0.387846	-0.398252	-0.361131	0.235935	-0.477615	-0.229241	0.128635	-0.405225	-0.173742	0.142630	-0.467161	-0.146899	0.124350	-0.461559	-0.278982	0.898420	-0.757485	-0.265763	0.840421	-0.753008	-0.198047	0.856455	-0.775080	-0.219859	0.914392	-0.777533	-0.259998	0.631967	-0.746020	-0.226854	0.611394	-0.626578	-0.326928	0.390156	-0.735834	-0.332094	0.351037	-0.728039	-0.273835	0.345017	-0.750956	-0.277131	0.388776	-0.756475	-0.360027	0.235027	-0.680989	-0.231246	0.128367	-0.758591	-0.178359	0.144330	-0.701621	-0.154843	0.129947	-0.710106	
505	2.5250	-0.323249	1.646306	-0.562901	-0.280927	1.640236	-0.748585	-0.294833	1.630547	-0.380694	-0.165431	1.605965	-0.565447	-0.160663	1.137834	-0.445728	-0.157195	1.146392	-0.692876	-0.229754	1.197995	-0.403582	-0.230052	1.212316	-0.731640	-0.333258	1.188758	-0.535517	-0.331878	1.190742	-0.598660	-0.331760	1.190819	-0.568891	-0.235152	0.909480	-0.370960	-0.228510	0.848500	-0.372439	-0.157615	0.864716	-0.374752	-0.171253	0.922667	-0.373590	-0.250387	0.640830	-0.401018	-0.212991	0.623844	-0.529304	-0.313381	0.399345	-0.404794	-0.324669	0.360927	-0.419845	-0.266229	0.347181	-0.408049	-0.257976	0.385465	-0.397582	-0.360390	0.233578	-0.477188	-0.228810	0.126884	-0.403392	-0.173065	0.140263	-0.465158	-0.146352	0.122029	-0.459018	-0.278444	0.895913	-0.757746	-0.265144	0.837935	-0.753242	-0.197418	0.854078	-0.775194	-0.219305	0.911973	-0.777670	-0.259082	0.629502	-0.746262	-0.225976	0.609002	-0.626795	-0.326571	0.387846	-0.735756	-0.331811	0.348792	-0.727865	-0.273599	0.342593	-0.750996	-0.276803	0.386337	-0.756520	-0.359821	0.232534	-0.680667	-0.231228	0.126595	-0.759441	-0.178028	0.142200	-0.702765	-0.154513	0.127904	-0.711498	
506	2.5300	-0.322918	1.643616	-0.562418	-0.281266	1.637325	-0.748047	-0.294407	1.627373	-0.380233	-0.165354	1.603100	-0.565169	-0.160714	1.135103	-0.445833	-0.157163	1.143739	-0.692791	-0.229517	1.195439	-0.403625	-0.229710	1.210018	-0.731580	-0.333197	1.186461	-0.535487	-0.331795	1.188508	-0.598668	-0.331705	1.188610	-0.568877	-0.235019	0.906862	-0.370767	-0.228198	0.845900	-0.372107	-0.157352	0.862262	-0.374187	-0.171152	0.920228	-0.373191	-0.249371	0.638154	-0.400401	-0.211674	0.621086	-0.528623	-0.312629	0.396773	-0.404207	-0.323909	0.358349	-0.419363	-0.265541	0.344561	-0.407420	-0.257262	0.382836	-0.396921	-0.359773	0.231009	-0.476794	-0.228483	0.124951	-0.401606	-0.172506	0.137673	-0.463136	-0.145908	0.119636	-0.456520	-0.277850	0.893191	-0.758042	-0.264477	0.835238	-0.753516	-0.196733	0.851491	-0.775336	-0.218685	0.909341	-0.777817	-0.258074	0.626789	-0.746548	-0.225093	0.606335	-0.627047	-0.326217	0.385312	-0.735762	-0.331495	0.346399	-0.727769	-0.273370	0.339924	-0.751050	-0.276449	0.383644	-0.756587	-0.359744	0.229802	-0.680477	-0.231164	0.124634	-0.760233	-0.177689	0.139893	-0.703734	-0.154187	0.125669	-0.712675	
507	2.5350	-0.322578	1.640685	-0.561949	-0.281578	1.634168	-0.747517	-0.293962	1.623963	-0.379782	-0.165277	1.599987	-0.564905	-0.160767	1.132109	-0.445954	-0.157131	1.140820	-0.692683	-0.229283	1.192623	-0.403658	-0.229370	1.207470	-0.731537	-0.333144	1.183920	-0.535471	-0.331720	1.186026	-0.598694	-0.331664	1.186158	-0.568882	-0.234830	0.903995	-0.370555	-0.227814	0.843047	-0.371742	-0.157021	0.859604	-0.373599	-0.171006	0.917557	-0.372776	-0.248230	0.635215	-0.399724	-0.210295	0.618107	-0.527901	-0.311899	0.393992	-0.403617	-0.323196	0.355578	-0.418866	-0.264899	0.341708	-0.406804	-0.256568	0.379967	-0.396270	-0.359296	0.228208	-0.476401	-0.228253	0.122856	-0.399865	-0.172062	0.134923	-0.461187	-0.145564	0.117160	-0.454110	-0.277195	0.890254	-0.758371	-0.263752	0.832317	-0.753837	-0.195983	0.848694	-0.775503	-0.218002	0.906497	-0.777973	-0.256972	0.623827	-0.746883	-0.224204	0.603396	-0.627331	-0.325856	0.382555	-0.735863	-0.331148	0.343654	-0.727686	-0.273126	0.337026	-0.751118	-0.276057	0.380693	-0.756684	-0.359806	0.226853	-0.680426	-0.231073	0.122457	-0.760919	-0.177418	0.137407	-0.704523	-0.153921	0.123239	-0.713597	
508	2.5400	-0.322232	1.637509	-0.561494	-0.281863	1.630762	-0.747000	-0.293508	1.620314	-0.379345	-0.165194	1.596626	-0.564656	-0.160822	1.128857	-0.446085	-0.157097	1.137641	-0.692556	-0.229065	1.189546	-0.403679	-0.229043	1.204665	-0.731513	-0.333104	1.181136	-0.535475	-0.331655	1.183287	-0.598743	-0.331638	1.183460	-0.568909	-0.234565	0.900882	-0.370330	-0.227353	0.839943	-0.371344	-0.156620	0.856733	-0.373001	-0.170808	0.914643	-0.372349	-0.246999	0.632024	-0.399018	-0.208851	0.614902	-0.527141	-0.311187	0.391004	-0.403036	-0.322527	0.352619	-0.418342	-0.264303	0.338626	-0.406201	-0.255895	0.376856	-0.395638	-0.358966	0.225198	-0.476020	-0.228148	0.120608	-0.398134	-0.171719	0.132141	-0.459426	-0.145339	0.114569	-0.451820	-0.276480	0.887088	-0.758725	-0.262961	0.829165	-0.754205	-0.195164	0.845690	-0.775698	-0.217256	0.903439	-0.778133	-0.255767	0.620624	-0.747272	-0.223299	0.600189	-0.627652	-0.325487	0.379568	-0.736068	-0.330960	0.340627	-0.727884	-0.272873	0.333885	-0.751201	-0.275635	0.377519	-0.756824	-0.360005	0.223715	-0.680524	-0.230977	0.120034	-0.761463	-0.177278	0.134727	-0.705079	-0.153748	0.120616	-0.714230	
509	2.5450	-0.321883	1.634090	-0.561054	-0.282117	1.627101	-0.746506	-0.293049	1.616423	-0.378925	-0.165102	1.593021	-0.564419	-0.160883	1.125348	-0.446219	-0.157063	1.134205	-0.692415	-0.228875	1.186210	-0.403686	-0.228746	1.201591	-0.731508	-0.333078	1.178109	-0.535502	-0.331598	1.180288	-0.598811	-0.331630	1.180508	-0.568958	-0.234236	0.897516	-0.370085	-0.226813	0.836583	-0.370912	-0.156146	0.853634	-0.372392	-0.170552	0.911501	-0.371918	-0.245683	0.628604	-0.398289	-0.207346	0.611468	-0.526341	-0.310503	0.387825	-0.402452	-0.321916	0.349471	-0.417795	-0.263758	0.335314	-0.405617	-0.255247	0.373504	-0.395017	-0.358789	0.221985	-0.475631	-0.228167	0.118170	-0.396463	-0.171541	0.129092	-0.457725	-0.145230	0.111834	-0.449717	-0.275704	0.883690	-0.759114	-0.262098	0.825782	-0.754613	-0.194268	0.842472	-0.775903	-0.216449	0.900164	-0.778298	-0.254454	0.617182	-0.747720	-0.222374	0.596718	-0.628015	-0.325101	0.376368	-0.736392	-0.329988	0.337411	-0.727630	-0.272609	0.330503	-0.751308	-0.275175	0.374118	-0.757018	-0.360350	0.220422	-0.680777	-0.230866	0.117326	-0.761816	-0.177260	0.131810	-0.705339	-0.153703	0.117742	-0.714499	
510	2.5500	-0.321529	1.630422	-0.560629	-0.282336	1.623187	-0.746036	-0.292591	1.612287	-0.378522	-0.164997	1.589168	-0.564192	-0.160950	1.121582	-0.446349	-0.157032	1.130516	-0.692263	-0.228722	1.182615	-0.403677	-0.228490	1.198246	-0.731525	-0.333070	1.174836	-0.535551	-0.331556	1.177024	-0.598894	-0.331645	1.177290	-0.569027	-0.233840	0.893899	-0.369817	-0.226197	0.832973	-0.370446	-0.155596	0.850316	-0.371783	-0.170238	0.908121	-0.371491	-0.244266	0.624929	-0.397531	-0.205777	0.607792	-0.525501	-0.309839	0.384436	-0.401862	-0.321362	0.346119	-0.417223	-0.263259	0.331770	-0.405050	-0.254627	0.369910	-0.394410	-0.358764	0.218600	-0.475225	-0.228331	0.115520	-0.394871	-0.171558	0.125828	-0.456106	-0.145286	0.108892	-0.447758	-0.274869	0.880049	-0.759534	-0.261160	0.822157	-0.755060	-0.193296	0.839029	-0.776104	-0.215579	0.896663	-0.778471	-0.253017	0.613510	-0.748228	-0.221419	0.592996	-0.628423	-0.324687	0.372974	-0.736833	-0.329731	0.333970	-0.727969	-0.272331	0.326901	-0.751440	-0.274676	0.370505	-0.757270	-0.360839	0.217028	-0.681205	-0.230810	0.114362	-0.761981	-0.177428	0.128650	-0.705290	-0.153798	0.114636	-0.714380	
